<svg clip-rule="evenodd" fill-rule="evenodd" stroke-linejoin="round" stroke-miterlimit="2" viewBox="0 0 512 512" xmlns="http://www.w3.org/2000/svg" xmlns:xlink="http://www.w3.org/1999/xlink"><clipPath id="a"><path clip-rule="evenodd" d="m-424.529-286.628h203.756v203.756h-203.756z"/></clipPath><g clip-path="url(#a)" transform="matrix(2.51281 0 0 2.51281 1066.76 720.244)"><path d="m332.554 269.346c0-5.889-4.781-10.67-10.669-10.67h-105.497c-5.889 0-10.669 4.781-10.669 10.67v105.497c0 5.888 4.78 10.669 10.669 10.669h105.497c5.888 0 10.669-4.781 10.669-10.669zm-18.391 10.449c0-1.505-1.222-2.727-2.727-2.727h-84.599c-1.505 0-2.727 1.222-2.727 2.727v84.598c0 1.506 1.222 2.728 2.727 2.728h84.599c1.505 0 2.727-1.222 2.727-2.728z" transform="matrix(1.60645 0 0 1.60645 -755.007 -702.179)"/></g></svg>